<?xml version="1.0" encoding="utf-8"?>
<!-- Generator: Adobe Illustrator 26.0.1, SVG Export Plug-In . SVG Version: 6.00 Build 0)  -->
<svg version="1.1" id="Artwork" xmlns="http://www.w3.org/2000/svg" xmlns:xlink="http://www.w3.org/1999/xlink" x="0px" y="0px"
	 viewBox="0 0 1000 493.3" style="enable-background:new 0 0 1000 493.3;" xml:space="preserve">
<style type="text/css">
	.st0{fill:#FFFFFF;}
</style>
<rect x="3.2" y="327.7" transform="matrix(0.9945 -0.1045 0.1045 0.9945 -37.4718 54.3718)" class="st0" width="993.5" height="114"/>
<path d="M478.9,63.3c-63,0-114,51-114,114s51,114,114,114c63,0,114-51,114-114c0.1-62.9-50.9-113.9-113.7-114
	C479.1,63.3,479,63.3,478.9,63.3z M478.9,240.7c-35,0-63.4-28.4-63.4-63.3c0-35,28.4-63.4,63.3-63.4c35,0,63.4,28.4,63.4,63.3
	c0,0,0,0,0,0C542.2,212.3,513.9,240.7,478.9,240.7z"/>
<path d="M845.8,63.3c-63,0-114,51-114,114s51,114,114,114s114-51,114-114c0.1-62.9-50.8-113.9-113.7-114
	C846,63.3,845.9,63.3,845.8,63.3z M845.8,240.7c-35,0-63.4-28.4-63.4-63.3s28.4-63.4,63.3-63.4s63.4,28.4,63.4,63.3v0
	C909.2,212.4,880.8,240.7,845.8,240.7z"/>
<polygon points="776.4,56.8 776.4,6.1 548.3,6.1 548.3,56.8 637,56.8 637,285.3 687.7,285.3 687.7,56.8 "/>
<path d="M170.8,120.1v50.7h70c-16.2,42.5-47,69.9-82.7,69.9c-52.5-0.1-94.9-42.8-94.8-95.2C63.4,93,106,50.6,158.5,50.7
	c25.1,0.1,49.2,10.1,67,27.8l36-36c-56.9-56.9-149.1-57-206.1-0.1c-27.4,27.3-42.7,64.4-42.7,103c-0.1,38.6,15.2,75.7,42.6,102.9
	c27.2,27.4,64.2,42.9,102.9,43.1c49.6,0,94.3-32,120.6-82.7v76.6h50.7V120.1H170.8z"/>
</svg>
